<svg id="f7e336a3-6a41-4077-8df7-288191712cd6" data-name="Layer 1" xmlns="http://www.w3.org/2000/svg" viewBox="0 0 1661.47 1086.09"><title>light</title><path d="M745.79,1000.37C745.94,703.68,993,457.71,1290.53,458c295.56,0.34,541.5,247.35,541.35,543.72-0.15,296.69-247.27,542.73-544.73,542.37C991.66,1543.78,745.64,1296.67,745.79,1000.37Zm547.39-349.65c-173.38-3.28-355.37,133.86-354.64,349.56,0.71,211.11,168,357,362.76,351,177.09-5.41,349.71-172.59,333.79-319.53-113,31.61-211.51,4.79-289.74-81.41C1266.48,863.43,1249.32,762.27,1293.18,650.72Z" transform="translate(-170.41 -458.05)" style="fill:#e0e0e0"/><path d="M814.2,618.27C637,874,636.93,1127.66,813.66,1383.1c-3.64.36-8.47,1.24-13.31,1.24-85.18.07-170.35,0.42-255.53-.07-180.94-1-345.75-150-370.79-329.19C145.87,853.48,284.72,661.6,486.7,623.39c12.39-2.34,25-4.84,37.52-4.89C620.68,618.09,717.14,618.27,814.2,618.27Z" transform="translate(-170.41 -458.05)" style="fill:#e0e0e0"/></svg>