<svg id="b2d89210-084e-4b47-b1a4-74b061a87d9d" data-name="Layer 1" xmlns="http://www.w3.org/2000/svg" viewBox="0 0 1661.47 1086.09"><title>lightMode</title><path d="M2805.34,450.54c-295.56.33-541.5,247.35-541.35,543.72,0.15,296.68,247.26,542.72,544.73,542.37,295.49-.36,541.51-247.46,541.36-543.76C3349.93,696.17,3102.87,450.2,2805.34,450.54Zm167,300.73c32.93-12.37,65.92-24.61,98.84-37,10.91-4.11,22.74-5,28.92,5.24,4.54,7.51,6.8,19.65,4.12,27.74-12.44,37.42-26.94,74.16-40.78,111.11-0.89,2.36-2.5,4.45-4.57,8.08-26.63-44.6-61.32-79.55-107.2-106.78C2960,756.22,2966.1,753.6,2972.31,751.27Zm76.42,258.13c0,132.78-107.58,240.15-240,239.53A239.16,239.16,0,0,1,2570,1009.69c-0.14-132.6,107.59-240.08,240.05-239.5S3048.7,877.29,3048.73,1009.4Zm-293.57-327c10.43-22.81,20-46.08,32-68.06,3.93-7.22,13.81-14.6,21.57-15.31,6.93-.64,18.27,6,21.51,12.55,19,38.13,36.13,77.15,55.78,120-52.43-11.79-101-11.89-152.95,0C2741.39,713,2748.19,697.69,2755.16,682.42ZM2518.7,718.51c8.88-8.73,19-8,29.74-4,38.85,14.63,77.77,29.08,119.43,44.63-45.93,27.33-81,61.8-108,107.57-2.58-5.27-4.53-8.57-5.86-12.11-13.13-35-26-70.07-39.28-105C2510.46,738.34,2509.23,727.8,2518.7,718.51ZM2418.07,1034.4c-10.74-4.88-19.89-11-20.22-24.21-0.34-14.07,9.21-20.49,20.51-25.61,36.81-16.68,73.53-33.53,113-51.57-11.57,51.63-12.62,100.65.26,151.76-5.81-2-9.66-2.9-13.21-4.51C2485,1065,2451.57,1049.6,2418.07,1034.4Zm121.4,272.36c-15.56,5.23-32.61-12-27.35-27.47,14.31-42.22,30.35-83.86,46.71-128.48,27.7,46.59,62.6,81.77,109.59,109.28C2623.4,1276.53,2581.74,1292.55,2539.47,1306.76Zm317.15,45.18c-8.19,18-15.35,36.53-25.31,53.44-4.18,7.1-14.21,14.2-22,14.69-6.95.43-17.89-6.53-21.18-13.16-18.92-38.14-36.09-77.16-55.62-119.74,52.29,12.46,101.37,12.44,153.41.06C2875.34,1310.63,2866,1331.31,2856.62,1351.94Zm222.8-45.17c-42.3-14.14-83.94-30.26-128.77-46.67,46.43-27.72,81.52-62.25,109.18-109.59,16.5,45.06,32.06,85.82,46.22,127.06C3111.81,1294.35,3095.76,1312.23,3079.42,1306.77Zm127.2-275.92c-38.15,18.93-77.17,36.11-119.68,55.62,12.53-52.47,12.38-101.56.09-153.57,19.07,8.65,35.41,16,51.7,23.45,22.32,10.2,45.15,19.48,66.58,31.3,7.1,3.91,14.11,14.27,14.56,22.06C3220.27,1016.67,3213.27,1027.56,3206.62,1030.85Z" transform="translate(-2263.99 -450.54)" style="fill:#444"/><path d="M3281.67,610.76c177.16,255.76,177.27,509.39.53,764.82,3.64,0.36,8.47,1.24,13.31,1.24,85.18,0.07,170.35.42,255.53-.07,180.94-1,345.75-150,370.79-329.19C3950,846,3811.15,654.09,3609.17,615.88c-12.39-2.34-25-4.84-37.52-4.89C3475.19,610.58,3378.73,610.76,3281.67,610.76Z" transform="translate(-2263.99 -450.54)" style="fill:#444"/></svg>